<svg width="40" height="40" viewBox="0 0 40 40" fill="none" xmlns="http://www.w3.org/2000/svg">
<rect x="0.5" y="0.5" width="39" height="39" rx="19.5" stroke="#E8E8E8"/>
<path d="M22.2 12.9001C22.35 12.9001 22.5 12.9001 22.8 12.9001V15.1501C22.65 15.1501 22.35 15.1501 22.05 15.1501C21.75 15.1501 21.45 15.1501 21.3 15.3001C21.15 15.4501 21.15 15.6001 21.15 15.9501C21.15 16.2501 21.15 16.4501 21.15 16.7501H22.8V18.6501H21.15V26.9001H18.6V18.6001H17.25V16.7001H18.6V16.0501C18.6 14.9501 18.75 14.1501 19.05 13.8001C19.5 13.1501 20.4 12.8501 21.75 12.8501C21.9 12.9001 22.05 12.9001 22.2 12.9001Z" fill="#050505"/>
</svg>
