<svg width="82" height="19" viewBox="0 0 82 19" fill="none" xmlns="http://www.w3.org/2000/svg">
<path d="M2.4 18V8.544H0.096V5.832H3.432L2.4 6.768V5.016C2.4 3.432 2.808 2.24 3.624 1.44C4.456 0.639999 5.696 0.24 7.344 0.24C7.712 0.24 8.104 0.263999 8.52 0.311999C8.952 0.359999 9.328 0.455999 9.648 0.599999V3.384C9.424 3.304 9.168 3.248 8.88 3.216C8.592 3.168 8.312 3.144 8.04 3.144C7.672 3.144 7.328 3.208 7.008 3.336C6.704 3.464 6.456 3.68 6.264 3.984C6.088 4.272 6 4.664 6 5.16V6.432L5.496 5.832H9.072V8.544H6.024V18H2.4ZM15.7446 18.264C14.4486 18.264 13.3206 18.008 12.3606 17.496C11.4166 16.968 10.6806 16.232 10.1526 15.288C9.64056 14.344 9.38456 13.216 9.38456 11.904C9.38456 10.608 9.64056 9.488 10.1526 8.544C10.6806 7.6 11.4166 6.872 12.3606 6.36C13.3206 5.848 14.4486 5.592 15.7446 5.592C17.0406 5.592 18.1686 5.848 19.1286 6.36C20.0886 6.872 20.8246 7.6 21.3366 8.544C21.8646 9.488 22.1286 10.608 22.1286 11.904C22.1286 13.216 21.8646 14.344 21.3366 15.288C20.8246 16.232 20.0886 16.968 19.1286 17.496C18.1686 18.008 17.0406 18.264 15.7446 18.264ZM15.7446 15.528C16.5766 15.528 17.2326 15.232 17.7126 14.64C18.2086 14.048 18.4566 13.136 18.4566 11.904C18.4566 10.672 18.2086 9.768 17.7126 9.192C17.2326 8.616 16.5766 8.328 15.7446 8.328C14.9126 8.328 14.2486 8.616 13.7526 9.192C13.2726 9.768 13.0326 10.672 13.0326 11.904C13.0326 13.136 13.2726 14.048 13.7526 14.64C14.2486 15.232 14.9126 15.528 15.7446 15.528ZM29.7489 18.264C28.4529 18.264 27.3249 18.008 26.3649 17.496C25.4209 16.968 24.6849 16.232 24.1569 15.288C23.6449 14.344 23.3889 13.216 23.3889 11.904C23.3889 10.608 23.6449 9.488 24.1569 8.544C24.6849 7.6 25.4209 6.872 26.3649 6.36C27.3249 5.848 28.4529 5.592 29.7489 5.592C31.0449 5.592 32.1729 5.848 33.1329 6.36C34.0929 6.872 34.8289 7.6 35.3409 8.544C35.8689 9.488 36.1329 10.608 36.1329 11.904C36.1329 13.216 35.8689 14.344 35.3409 15.288C34.8289 16.232 34.0929 16.968 33.1329 17.496C32.1729 18.008 31.0449 18.264 29.7489 18.264ZM29.7489 15.528C30.5809 15.528 31.2369 15.232 31.7169 14.64C32.2129 14.048 32.4609 13.136 32.4609 11.904C32.4609 10.672 32.2129 9.768 31.7169 9.192C31.2369 8.616 30.5809 8.328 29.7489 8.328C28.9169 8.328 28.2529 8.616 27.7569 9.192C27.2769 9.768 27.0369 10.672 27.0369 11.904C27.0369 13.136 27.2769 14.048 27.7569 14.64C28.2529 15.232 28.9169 15.528 29.7489 15.528ZM42.7693 18.264C41.7133 18.264 40.7773 18.008 39.9613 17.496C39.1613 16.984 38.5293 16.256 38.0653 15.312C37.6173 14.368 37.3933 13.232 37.3933 11.904C37.3933 10.592 37.6173 9.464 38.0653 8.52C38.5133 7.576 39.1453 6.856 39.9613 6.36C40.7773 5.848 41.7133 5.592 42.7693 5.592C43.7293 5.592 44.5853 5.824 45.3373 6.288C46.1053 6.736 46.6173 7.344 46.8733 8.112H46.5613V0.335999H50.1853V18H46.6093V15.624H46.9213C46.6653 16.424 46.1533 17.064 45.3853 17.544C44.6173 18.024 43.7453 18.264 42.7693 18.264ZM43.8493 15.528C44.6813 15.528 45.3533 15.232 45.8653 14.64C46.3773 14.048 46.6333 13.136 46.6333 11.904C46.6333 10.672 46.3773 9.768 45.8653 9.192C45.3533 8.616 44.6813 8.328 43.8493 8.328C43.0173 8.328 42.3373 8.616 41.8093 9.192C41.2973 9.768 41.0413 10.672 41.0413 11.904C41.0413 13.136 41.2973 14.048 41.8093 14.64C42.3373 15.232 43.0173 15.528 43.8493 15.528ZM52.6774 18V5.832H56.3014V18H52.6774ZM52.5334 3.84V0.456H56.4214V3.84H52.5334ZM64.9033 18.264C62.7913 18.264 61.1433 17.696 59.9593 16.56C58.7753 15.424 58.1833 13.88 58.1833 11.928C58.1833 10.664 58.4313 9.56 58.9273 8.616C59.4393 7.672 60.1433 6.936 61.0393 6.408C61.9513 5.864 63.0153 5.592 64.2313 5.592C65.4313 5.592 66.4313 5.848 67.2313 6.36C68.0473 6.872 68.6553 7.592 69.0553 8.52C69.4713 9.432 69.6793 10.496 69.6793 11.712V12.552H61.1593V10.752H67.0393L66.6313 11.088C66.6313 10.08 66.4233 9.32 66.0073 8.808C65.6073 8.28 65.0233 8.016 64.2553 8.016C63.4073 8.016 62.7513 8.328 62.2873 8.952C61.8393 9.576 61.6153 10.472 61.6153 11.64V12.024C61.6153 13.208 61.9033 14.088 62.4793 14.664C63.0713 15.24 63.9193 15.528 65.0233 15.528C65.6793 15.528 66.2953 15.448 66.8713 15.288C67.4633 15.112 68.0233 14.84 68.5513 14.472L69.5593 16.872C68.9513 17.32 68.2473 17.664 67.4473 17.904C66.6633 18.144 65.8153 18.264 64.9033 18.264ZM75.9866 18.264C74.8986 18.264 73.9066 18.144 73.0106 17.904C72.1146 17.664 71.3546 17.328 70.7306 16.896L71.6666 14.496C72.2906 14.88 72.9786 15.184 73.7306 15.408C74.4986 15.632 75.2586 15.744 76.0106 15.744C76.7146 15.744 77.2346 15.632 77.5706 15.408C77.9066 15.184 78.0746 14.88 78.0746 14.496C78.0746 14.176 77.9626 13.928 77.7386 13.752C77.5306 13.576 77.2026 13.448 76.7546 13.368L74.2826 12.912C73.2426 12.704 72.4506 12.32 71.9066 11.76C71.3626 11.2 71.0906 10.472 71.0906 9.576C71.0906 8.792 71.2986 8.104 71.7146 7.512C72.1466 6.904 72.7626 6.432 73.5626 6.096C74.3626 5.76 75.2986 5.592 76.3706 5.592C77.2826 5.592 78.1466 5.704 78.9626 5.928C79.7786 6.152 80.4746 6.496 81.0506 6.96L80.0666 9.288C79.5706 8.92 78.9946 8.624 78.3386 8.4C77.6986 8.176 77.0826 8.064 76.4906 8.064C75.7226 8.064 75.1706 8.192 74.8346 8.448C74.4986 8.688 74.3306 9 74.3306 9.384C74.3306 9.672 74.4266 9.912 74.6186 10.104C74.8266 10.296 75.1386 10.44 75.5546 10.536L78.0506 10.992C79.1226 11.184 79.9386 11.544 80.4986 12.072C81.0586 12.6 81.3386 13.328 81.3386 14.256C81.3386 15.104 81.1146 15.824 80.6666 16.416C80.2186 17.008 79.5866 17.464 78.7706 17.784C77.9706 18.104 77.0426 18.264 75.9866 18.264Z" fill="#050505"/>
</svg>
