<svg width="36" height="36" viewBox="0 0 36 36" fill="none" xmlns="http://www.w3.org/2000/svg">
<rect x="0.5" y="0.5" width="35" height="35" rx="17.5" stroke="#E8E8E8"/>
<path d="M23.8931 13.0731C23.5526 12.7324 23.1483 12.4622 22.7033 12.2778C22.2583 12.0934 21.7814 11.9985 21.2998 11.9985C20.8181 11.9985 20.3412 12.0934 19.8962 12.2778C19.4512 12.4622 19.0469 12.7324 18.7064 13.0731L17.9998 13.7798L17.2931 13.0731C16.6053 12.3853 15.6724 11.9989 14.6998 11.9989C13.7271 11.9989 12.7942 12.3853 12.1064 13.0731C11.4186 13.7609 11.0322 14.6937 11.0322 15.6664C11.0322 16.6391 11.4186 17.572 12.1064 18.2598L12.8131 18.9664L17.9998 24.1531L23.1864 18.9664L23.8931 18.2598C24.2337 17.9192 24.504 17.515 24.6884 17.07C24.8727 16.625 24.9676 16.1481 24.9676 15.6664C24.9676 15.1848 24.8727 14.7078 24.6884 14.2628C24.504 13.8179 24.2337 13.4136 23.8931 13.0731Z" stroke="#050505" stroke-width="1.3" stroke-linecap="round" stroke-linejoin="round"/>
</svg>