<svg width="40" height="40" viewBox="0 0 40 40" fill="none" xmlns="http://www.w3.org/2000/svg">
<rect x="0.5" y="0.5" width="39" height="39" rx="19.5" stroke="#E8E8E8"/>
<path d="M27.9485 16.7225C27.9387 16.051 27.8143 15.3849 27.5762 14.7568C27.1595 13.6844 26.311 12.8365 25.2368 12.4213C24.6157 12.188 23.9591 12.063 23.2945 12.0488C22.4398 12.0106 22.1688 12 19.9991 12C17.8294 12 17.5513 12 16.7028 12.0488C16.0391 12.063 15.3825 12.188 14.7614 12.4213C13.6873 12.8365 12.8378 13.6844 12.422 14.7568C12.1884 15.3769 12.0622 16.0324 12.0498 16.695C12.0116 17.5492 12 17.8197 12 19.9858C12 22.1519 12 22.4287 12.0498 23.2766C12.0631 23.9401 12.1884 24.5947 12.422 25.2165C12.8387 26.2881 13.6873 27.136 14.7623 27.5512C15.3807 27.7924 16.0373 27.929 16.7037 27.9503C17.5593 27.9885 17.8303 28 20 28C22.1697 28 22.4478 28 23.2963 27.9503C23.96 27.937 24.6166 27.812 25.2386 27.5787C26.3127 27.1627 27.1613 26.3147 27.578 25.2432C27.8116 24.6222 27.9369 23.9676 27.9502 23.3033C27.9884 22.4499 28 22.1794 28 20.0124C27.9982 17.8463 27.9982 17.5714 27.9485 16.7225ZM19.9938 24.0821C17.7246 24.0821 15.8863 22.2468 15.8863 19.9814C15.8863 17.7159 17.7246 15.8807 19.9938 15.8807C22.2612 15.8807 24.1013 17.7159 24.1013 19.9814C24.1013 22.2468 22.2612 24.0821 19.9938 24.0821ZM24.2648 16.6852C23.7343 16.6852 23.307 16.2577 23.307 15.729C23.307 15.2004 23.7343 14.7728 24.2648 14.7728C24.7934 14.7728 25.2217 15.2004 25.2217 15.729C25.2217 16.2577 24.7934 16.6852 24.2648 16.6852Z" fill="#050505"/>
<path d="M19.9947 22.485C21.3768 22.485 22.4972 21.3646 22.4972 19.9825C22.4972 18.6004 21.3768 17.48 19.9947 17.48C18.6126 17.48 17.4922 18.6004 17.4922 19.9825C17.4922 21.3646 18.6126 22.485 19.9947 22.485Z" fill="#050505"/>
</svg>