<svg width="40" height="40" viewBox="0 0 40 40" fill="none" xmlns="http://www.w3.org/2000/svg">
<rect x="0.5" y="0.5" width="39" height="39" rx="19.5" stroke="#E8E8E8"/>
<path d="M28.82 15.8476C28.82 15.8476 28.64 14.5476 28.1 13.9905C27.44 13.2476 26.66 13.2476 26.3 13.1857C23.78 13 20 13 20 13C20 13 16.22 13 13.7 13.1857C13.34 13.2476 12.56 13.2476 11.9 13.9905C11.36 14.5476 11.18 15.8476 11.18 15.8476C11.18 15.8476 11 17.3333 11 18.819V20.181C11 21.6667 11.18 23.2143 11.18 23.2143C11.18 23.2143 11.36 24.5143 11.9 25.0714C12.56 25.8143 13.46 25.8143 13.88 25.8762C15.32 25.9381 20 26 20 26C20 26 23.78 26 26.3 25.8143C26.66 25.7524 27.44 25.7524 28.1 25.0095C28.64 24.4524 28.82 23.1524 28.82 23.1524C28.82 23.1524 29 21.6667 29 20.181V18.819C29 17.3333 28.82 15.8476 28.82 15.8476ZM18.14 21.9143V16.7143L23 19.3143L18.14 21.9143Z" fill="#050505"/>
</svg>
